<svg width="45" height="45" viewBox="0 0 45 45" fill="none" xmlns="http://www.w3.org/2000/svg">
<g clip-path="url(#clip0_1_16)">
<path d="M22.5 45C34.9264 45 45 34.9264 45 22.5C45 10.0736 34.9264 0 22.5 0C10.0736 0 0 10.0736 0 22.5C0 34.9264 10.0736 45 22.5 45Z" fill="#1769FF"/>
<path d="M15.8956 12.3047C16.8658 12.3047 17.7514 12.3911 18.5524 12.5621C19.3534 12.7331 20.0374 13.0139 20.608 13.4045C21.1786 13.7951 21.6214 14.3135 21.9364 14.9615C22.2514 15.6095 22.408 16.4087 22.408 17.3609C22.408 18.3887 22.174 19.2455 21.7078 19.9313C21.2416 20.6171 20.5504 21.1787 19.6378 21.6161C20.8942 21.9779 21.832 22.6115 22.4512 23.5151C23.0704 24.4187 23.38 25.5095 23.38 26.7857C23.38 27.8135 23.1802 28.7045 22.7806 29.4569C22.381 30.2093 21.8428 30.8231 21.166 31.2983C20.4892 31.7753 19.7188 32.1263 18.853 32.3549C17.9818 32.5835 17.0836 32.6987 16.1836 32.6969H6.2998V12.3047H15.8956ZM15.325 20.5577C16.1242 20.5577 16.7812 20.3669 17.296 19.9871C17.8108 19.6055 18.0682 18.9881 18.0664 18.1313C18.0664 17.6561 17.98 17.2655 17.809 16.9613C17.638 16.6571 17.4094 16.4177 17.1232 16.2467C16.837 16.0757 16.5094 15.9569 16.1386 15.8903C15.757 15.8237 15.37 15.7895 14.9812 15.7913H10.7854V20.5613L15.325 20.5577ZM15.5824 29.2103C16.0054 29.2121 16.4266 29.1689 16.8388 29.0825C17.2384 28.9961 17.5912 28.8539 17.8954 28.6541C18.1996 28.4543 18.4426 28.1825 18.6244 27.8405C18.8044 27.4985 18.8962 27.0593 18.8962 26.5265C18.8962 25.4807 18.601 24.7319 18.0106 24.2855C17.4202 23.8373 16.639 23.6141 15.6688 23.6141H10.7854V29.2121L15.5824 29.2103ZM29.0212 28.7819C29.6296 29.3723 30.5062 29.6675 31.6492 29.6675C32.4682 29.6675 33.172 29.4623 33.7624 29.0537C34.3528 28.6451 34.7146 28.2113 34.8478 27.7541H38.4172C37.8466 29.5253 36.97 30.7907 35.7892 31.5521C34.6084 32.3135 33.181 32.6951 31.5052 32.6951C30.3442 32.6951 29.2966 32.5097 28.3642 32.1389C27.4318 31.7681 26.6416 31.2389 25.9936 30.5531C25.3456 29.8673 24.8452 29.0501 24.4942 28.0979C24.1432 27.1457 23.9668 26.0981 23.9668 24.9569C23.9668 23.8535 24.1468 22.8257 24.5086 21.8735C24.8704 20.9213 25.3852 20.0987 26.0512 19.4039C26.7172 18.7091 27.5128 18.1619 28.4362 17.7623C29.3596 17.3627 30.3838 17.1629 31.507 17.1629C32.7634 17.1629 33.8578 17.4059 34.792 17.8919C35.7244 18.3779 36.4912 19.0295 37.0906 19.8485C37.69 20.6675 38.1238 21.5999 38.3902 22.6475C38.6566 23.6951 38.752 24.7895 38.6764 25.9325H28.024C28.0798 27.2411 28.4128 28.1933 29.0212 28.7819ZM33.6058 21.0149C33.1198 20.4821 32.3818 20.2157 31.3918 20.2157C30.7438 20.2157 30.2056 20.3255 29.779 20.5433C29.3506 20.7629 29.0086 21.0329 28.7512 21.3569C28.4938 21.6809 28.3138 22.0229 28.2094 22.3847C28.105 22.7465 28.042 23.0705 28.024 23.3549H34.621C34.4284 22.3289 34.09 21.5477 33.6058 21.0149ZM27.3292 13.3397H35.5714V15.6257H27.3292V13.3397Z" fill="white"/>
</g>
<defs>
<clipPath id="clip0_1_16">
<rect width="45" height="45" fill="white"/>
</clipPath>
</defs>
</svg>
