<svg width="42" height="45" viewBox="0 0 42 45" fill="none" xmlns="http://www.w3.org/2000/svg">
<g clip-path="url(#clip0_6_2)">
<path d="M9.61893 5.46682C14.2247 8.93639 19.1796 15.9703 20.9982 19.745V29.7149C20.9982 29.5027 20.9166 29.7425 20.7408 30.2592C19.7916 33.0564 16.0841 43.9736 7.60637 35.246C3.14244 30.6509 5.20899 26.0558 13.3346 24.6684C8.6861 25.4619 3.46008 24.1505 2.0263 19.0093C1.61324 17.5303 0.910156 8.42038 0.910156 7.18999C0.910156 1.02674 6.29562 2.96398 9.61893 5.46682ZM32.3774 5.46682C27.7716 8.93639 22.8167 15.9703 20.9982 19.745V29.7149C20.9982 29.5027 21.0798 29.7425 21.2555 30.2592C22.2047 33.0564 25.9122 43.9736 34.3899 35.246C38.8539 30.6509 36.7873 26.0558 28.6617 24.6684C33.3102 25.4619 38.5362 24.1505 39.97 19.0093C40.3831 17.5303 41.0862 8.42038 41.0862 7.18999C41.0862 1.02674 35.7013 2.96398 32.3774 5.46682Z" fill="#0085FF"/>
</g>
<defs>
<clipPath id="clip0_6_2">
<rect width="40.176" height="45" fill="white" transform="translate(0.910156)"/>
</clipPath>
</defs>
</svg>
