<svg width="297" height="78" viewBox="0 0 297 78" fill="none" xmlns="http://www.w3.org/2000/svg">
<path d="M0.449219 76V4H30.4727C35.8633 4 40.375 4.76172 44.0078 6.28516C47.6641 7.80859 50.4062 9.94141 52.2344 12.6836C54.0859 15.4258 55.0117 18.6016 55.0117 22.2109C55.0117 24.9531 54.4375 27.4023 53.2891 29.5586C52.1406 31.6914 50.5586 33.4609 48.543 34.8672C46.5273 36.2734 44.1953 37.2578 41.5469 37.8203V38.5234C44.4531 38.6641 47.1367 39.4492 49.5977 40.8789C52.082 42.3086 54.0742 44.3008 55.5742 46.8555C57.0742 49.3867 57.8242 52.3867 57.8242 55.8555C57.8242 59.7227 56.8398 63.1797 54.8711 66.2266C52.9023 69.25 50.0547 71.6406 46.3281 73.3984C42.6016 75.1328 38.0781 76 32.7578 76H0.449219ZM17.8516 61.9727H28.6094C32.3828 61.9727 35.1602 61.2578 36.9414 59.8281C38.7461 58.3984 39.6484 56.4063 39.6484 53.8516C39.6484 52 39.2148 50.4063 38.3477 49.0703C37.4805 47.7109 36.25 46.668 34.6562 45.9414C33.0625 45.1914 31.1523 44.8164 28.9258 44.8164H17.8516V61.9727ZM17.8516 33.6016H27.4844C29.3828 33.6016 31.0703 33.2852 32.5469 32.6523C34.0234 32.0195 35.1719 31.1055 35.9922 29.9102C36.8359 28.7148 37.2578 27.2734 37.2578 25.5859C37.2578 23.1719 36.4023 21.2734 34.6914 19.8906C32.9805 18.5078 30.6719 17.8164 27.7656 17.8164H17.8516V33.6016Z" fill="url(#paint0_linear_2_6)"/>
<path d="M101.031 52.6914V22H118.188V76H101.805V65.9453H101.242C100.047 69.25 98.0078 71.875 95.125 73.8203C92.2656 75.7422 88.8086 76.7031 84.7539 76.7031C81.0742 76.7031 77.8398 75.8594 75.0508 74.1719C72.2617 72.4844 70.0938 70.1289 68.5469 67.1055C67 64.0586 66.2148 60.4961 66.1914 56.418V22H83.3828V53.043C83.4062 55.9727 84.1797 58.2813 85.7031 59.9688C87.2266 61.6563 89.3008 62.5 91.9258 62.5C93.6367 62.5 95.1719 62.125 96.5312 61.375C97.9141 60.6016 99.0039 59.4883 99.8008 58.0352C100.621 56.5586 101.031 54.7773 101.031 52.6914Z" fill="url(#paint1_linear_2_6)"/>
<path d="M159.821 22V34.6563H125.087V22H159.821ZM132.329 76V19.2578C132.329 15.0859 133.114 11.6289 134.685 8.88672C136.255 6.1211 138.435 4.0586 141.224 2.69922C144.013 1.31641 147.235 0.625 150.892 0.625C153.282 0.625 155.532 0.812502 157.642 1.18751C159.774 1.53907 161.356 1.85547 162.388 2.13672L159.646 14.7227C159.013 14.5117 158.239 14.3359 157.325 14.1953C156.435 14.0547 155.591 13.9844 154.794 13.9844C152.778 13.9844 151.396 14.4297 150.646 15.3203C149.896 16.2109 149.521 17.4297 149.521 18.9766V76H132.329Z" fill="url(#paint2_linear_2_6)"/>
<path d="M198.783 22V34.6563H164.049V22H198.783ZM171.291 76V19.2578C171.291 15.0859 172.076 11.6289 173.646 8.88672C175.217 6.1211 177.396 4.0586 180.186 2.69922C182.975 1.31641 186.197 0.625 189.854 0.625C192.244 0.625 194.494 0.812502 196.604 1.18751C198.736 1.53907 200.318 1.85547 201.35 2.13672L198.607 14.7227C197.975 14.5117 197.201 14.3359 196.287 14.1953C195.396 14.0547 194.553 13.9844 193.756 13.9844C191.74 13.9844 190.357 14.4297 189.607 15.3203C188.857 16.2109 188.482 17.4297 188.482 18.9766V76H171.291Z" fill="url(#paint3_linear_2_6)"/>
<path d="M230.556 77.0195C224.907 77.0195 220.032 75.9063 215.931 73.6797C211.853 71.4297 208.712 68.2305 206.509 64.082C204.329 59.9102 203.239 54.9531 203.239 49.2109C203.239 43.6328 204.341 38.7578 206.544 34.5859C208.747 30.3906 211.853 27.1328 215.86 24.8125C219.868 22.4688 224.591 21.2969 230.028 21.2969C233.872 21.2969 237.388 21.8945 240.575 23.0898C243.763 24.2852 246.517 26.0547 248.837 28.3984C251.157 30.7422 252.962 33.6367 254.251 37.082C255.54 40.5039 256.185 44.4297 256.185 48.8594V53.1484H209.251V43.1641H240.188C240.165 41.3359 239.731 39.707 238.888 38.2773C238.044 36.8477 236.884 35.7344 235.407 34.9375C233.954 34.1172 232.278 33.707 230.38 33.707C228.458 33.707 226.735 34.1406 225.212 35.0078C223.688 35.8516 222.481 37.0117 221.591 38.4883C220.7 39.9414 220.231 41.5938 220.185 43.4453V53.6055C220.185 55.8086 220.618 57.7422 221.485 59.4063C222.353 61.0469 223.583 62.3242 225.177 63.2383C226.771 64.1523 228.669 64.6094 230.872 64.6094C232.396 64.6094 233.778 64.3984 235.021 63.9766C236.263 63.5547 237.329 62.9336 238.22 62.1133C239.11 61.293 239.778 60.2852 240.224 59.0898L256.009 59.5469C255.353 63.0859 253.911 66.168 251.685 68.793C249.481 71.3945 246.587 73.4219 243.001 74.875C239.415 76.3047 235.267 77.0195 230.556 77.0195Z" fill="url(#paint4_linear_2_6)"/>
<path d="M295.445 22V34.6563H261.379V22H295.445ZM268.516 9.0625H285.707V59.0195C285.707 60.0742 285.871 60.9297 286.199 61.5859C286.551 62.2188 287.055 62.6758 287.711 62.957C288.367 63.2148 289.152 63.3438 290.066 63.3438C290.723 63.3438 291.414 63.2852 292.141 63.168C292.891 63.0273 293.453 62.9102 293.828 62.8164L296.43 75.2266C295.609 75.4609 294.449 75.7539 292.949 76.1055C291.473 76.457 289.703 76.6797 287.641 76.7734C283.609 76.9609 280.152 76.4922 277.27 75.3672C274.41 74.2188 272.219 72.4375 270.695 70.0234C269.195 67.6094 268.469 64.5742 268.516 60.918V9.0625Z" fill="url(#paint5_linear_2_6)"/>
<defs>
<linearGradient id="paint0_linear_2_6" x1="147" y1="-20" x2="147" y2="100" gradientUnits="userSpaceOnUse">
<stop stop-color="#FAFAFA"/>
<stop offset="1" stop-color="#D4D4D4"/>
</linearGradient>
<linearGradient id="paint1_linear_2_6" x1="147" y1="-20" x2="147" y2="100" gradientUnits="userSpaceOnUse">
<stop stop-color="#FAFAFA"/>
<stop offset="1" stop-color="#D4D4D4"/>
</linearGradient>
<linearGradient id="paint2_linear_2_6" x1="147" y1="-20" x2="147" y2="100" gradientUnits="userSpaceOnUse">
<stop stop-color="#FAFAFA"/>
<stop offset="1" stop-color="#D4D4D4"/>
</linearGradient>
<linearGradient id="paint3_linear_2_6" x1="147" y1="-20" x2="147" y2="100" gradientUnits="userSpaceOnUse">
<stop stop-color="#FAFAFA"/>
<stop offset="1" stop-color="#D4D4D4"/>
</linearGradient>
<linearGradient id="paint4_linear_2_6" x1="147" y1="-20" x2="147" y2="100" gradientUnits="userSpaceOnUse">
<stop stop-color="#FAFAFA"/>
<stop offset="1" stop-color="#D4D4D4"/>
</linearGradient>
<linearGradient id="paint5_linear_2_6" x1="147" y1="-20" x2="147" y2="100" gradientUnits="userSpaceOnUse">
<stop stop-color="#FAFAFA"/>
<stop offset="1" stop-color="#D4D4D4"/>
</linearGradient>
</defs>
</svg>
