<svg width="46" height="33" viewBox="0 0 46 33" fill="none" xmlns="http://www.w3.org/2000/svg">
<g clip-path="url(#clip0_1_65)">
<path d="M37.8942 2.78791C42.7672 9.95261 45.1738 18.0342 44.2742 27.338C44.2704 27.3773 44.2499 27.4135 44.2176 27.4372C40.5273 30.1469 36.952 31.7914 33.4268 32.8819C33.3994 32.8903 33.37 32.8898 33.3428 32.8806C33.3156 32.8714 33.292 32.854 33.2753 32.8307C32.4608 31.6975 31.7208 30.5029 31.0726 29.2483C31.0353 29.1745 31.0693 29.0855 31.1459 29.0563C32.3211 28.6135 33.4387 28.0828 34.5136 27.4545C34.5983 27.4048 34.6037 27.2835 34.5255 27.2252C34.2973 27.0559 34.0713 26.8779 33.8551 26.6999C33.8146 26.667 33.7601 26.6605 33.7143 26.6827C26.7357 29.9053 19.0909 29.9053 12.0298 26.6827C11.9839 26.6622 11.9295 26.6692 11.8901 26.7015C11.6744 26.8795 11.4478 27.0559 11.2218 27.2252C11.1436 27.2835 11.1501 27.4048 11.2353 27.4545C12.3102 28.0709 13.4278 28.6135 14.6014 29.0585C14.6774 29.0876 14.7136 29.1745 14.6758 29.2483C14.0416 30.5045 13.3016 31.6991 12.472 32.8323C12.4359 32.8782 12.3766 32.8992 12.3205 32.8819C8.81203 31.7914 5.23669 30.1469 1.54647 27.4372C1.51573 27.4135 1.49361 27.3757 1.49038 27.3364C0.738524 19.2887 2.27081 11.1403 7.86439 2.78629C7.87788 2.76418 7.89837 2.74692 7.9221 2.73667C10.6744 1.47352 13.623 0.544223 16.7049 0.0135041C16.7609 0.00487453 16.817 0.0307632 16.8462 0.0803833C17.2269 0.754569 17.6622 1.61914 17.9567 2.32569C21.2052 1.82949 24.5044 1.82949 27.8208 2.32569C28.1153 1.63425 28.5355 0.754569 28.9146 0.0803833C28.9281 0.0557673 28.9491 0.0360463 28.9744 0.0240358C28.9998 0.0120253 29.0283 0.00833933 29.0559 0.0135041C32.1394 0.545841 35.088 1.47514 37.8381 2.73667C37.8624 2.74692 37.8824 2.76418 37.8942 2.78791ZM19.6082 18.0892C19.6421 15.7102 17.9076 13.7415 15.7303 13.7415C13.5707 13.7415 11.8529 15.6929 11.8529 18.0892C11.8529 20.485 13.6047 22.4364 15.7303 22.4364C17.8903 22.4364 19.6082 20.485 19.6082 18.0892ZM33.9451 18.0892C33.9791 15.7102 32.2446 13.7415 30.0677 13.7415C27.9077 13.7415 26.1898 15.6929 26.1898 18.0892C26.1898 20.485 27.9416 22.4364 30.0677 22.4364C32.2446 22.4364 33.9451 20.485 33.9451 18.0892Z" fill="#5865F2"/>
</g>
<defs>
<clipPath id="clip0_1_65">
<rect width="45" height="32.904" fill="white" transform="translate(0.456055)"/>
</clipPath>
</defs>
</svg>
