<svg width="45" height="45" viewBox="0 0 45 45" fill="none" xmlns="http://www.w3.org/2000/svg">
<g clip-path="url(#clip0_1_3)">
<path d="M0 22.5C0 18.42 1.00503 14.655 3.015 11.205C5.02502 7.75499 7.75503 5.02502 11.205 3.015C14.655 1.00499 18.42 0 22.5 0C26.58 0 30.345 1.00499 33.795 3.015C37.245 5.02502 39.975 7.75499 41.985 11.205C43.995 14.655 45 18.42 45 22.5C45 26.58 43.995 30.345 41.985 33.795C39.975 37.245 37.245 39.975 33.795 41.985C30.345 43.995 26.58 45 22.5 45C18.42 45 14.655 43.995 11.205 41.985C7.75503 39.975 5.02502 37.245 3.015 33.795C1.00503 30.345 0 26.58 0 22.5ZM3.735 22.5C3.735 27.18 5.31 31.305 8.46 34.875C9.9 32.055 12.18 29.37 15.3 26.82C18.42 24.27 21.465 22.665 24.435 22.005C23.985 20.955 23.55 20.01 23.13 19.17C17.97 20.82 12.39 21.645 6.39 21.645C5.22 21.645 4.35002 21.63 3.78 21.6C3.78 21.72 3.77253 21.87 3.7575 22.05C3.74252 22.23 3.735 22.38 3.735 22.5ZM4.32 17.865C4.98002 17.925 5.95503 17.955 7.245 17.955C12.255 17.955 17.01 17.28 21.51 15.93C19.23 11.88 16.725 8.505 13.995 5.805C11.625 7.00502 9.59251 8.67002 7.8975 10.8C6.20253 12.93 5.01003 15.285 4.32 17.865ZM11.025 37.305C14.415 39.945 18.24 41.265 22.5 41.265C24.72 41.265 26.925 40.845 29.115 40.005C28.515 34.875 27.345 29.91 25.605 25.11C22.845 25.71 20.0625 27.225 17.2575 29.655C14.4525 32.085 12.375 34.635 11.025 37.305ZM17.91 4.365C20.55 7.09502 22.995 10.5 25.245 14.58C29.325 12.87 32.4 10.695 34.47 8.055C30.99 5.175 27 3.735 22.5 3.735C20.97 3.735 19.44 3.94502 17.91 4.365ZM26.865 17.775C27.315 18.735 27.825 19.95 28.395 21.42C30.615 21.21 33.03 21.105 35.64 21.105C37.5 21.105 39.345 21.15 41.175 21.24C40.935 17.16 39.465 13.53 36.765 10.35C34.815 13.26 31.515 15.735 26.865 17.775ZM29.52 24.57C31.05 29.01 32.085 33.57 32.625 38.25C34.995 36.72 36.93 34.755 38.43 32.355C39.93 29.955 40.83 27.36 41.13 24.57C38.94 24.42 36.945 24.345 35.145 24.345C33.495 24.345 31.62 24.42 29.52 24.57Z" fill="#B8509A"/>
</g>
<defs>
<clipPath id="clip0_1_3">
<rect width="45" height="45" fill="white"/>
</clipPath>
</defs>
</svg>
