<svg width="45" height="45" viewBox="0 0 45 45" fill="none" xmlns="http://www.w3.org/2000/svg">
<g clip-path="url(#clip0_6_15)">
<path fill-rule="evenodd" clip-rule="evenodd" d="M22.4998 0C9.91108 0 0.154785 9.21196 0.154785 21.6535C0.154785 28.1615 2.82535 33.7848 7.17303 37.6699C7.53725 37.9979 7.75746 38.4515 7.77545 38.941L7.89689 42.9114C7.93734 44.178 9.24564 45 10.4057 44.4924L14.8387 42.5387C15.2137 42.3728 15.6345 42.341 16.0302 42.4489C18.0668 43.0103 20.2384 43.3067 22.4998 43.3067C35.0886 43.3067 44.8449 34.0947 44.8449 21.6533C44.8449 9.21196 35.0886 0 22.4998 0Z" fill="url(#paint0_linear_6_15)"/>
<path fill-rule="evenodd" clip-rule="evenodd" d="M9.08379 27.986L15.6479 17.5839C16.6909 15.931 18.9299 15.5177 20.4945 16.6901L25.7143 20.6021C25.9475 20.7764 26.231 20.8702 26.5221 20.8694C26.8132 20.8686 27.0962 20.7732 27.3284 20.5976L34.3781 15.2527C35.3178 14.5387 36.5497 15.6661 35.9157 16.6631L29.3561 27.0608C28.313 28.7137 26.0741 29.127 24.5095 27.9546L19.2897 24.0426C19.0565 23.8683 18.773 23.7745 18.4819 23.7753C18.1908 23.7761 17.9078 23.8715 17.6756 24.0471L10.6214 29.3964C9.68174 30.1106 8.44975 28.9832 9.08379 27.986Z" fill="white"/>
</g>
<defs>
<linearGradient id="paint0_linear_6_15" x1="8938.17" y1="0" x2="8938.17" y2="17981.9" gradientUnits="userSpaceOnUse">
<stop stop-color="#00B2FF"/>
<stop offset="1" stop-color="#006AFF"/>
</linearGradient>
<clipPath id="clip0_6_15">
<rect width="45" height="45" fill="white"/>
</clipPath>
</defs>
</svg>
