<svg width="46" height="45" viewBox="0 0 46 45" fill="none" xmlns="http://www.w3.org/2000/svg">
<g clip-path="url(#clip0_1_74)">
<path d="M22.9561 45C35.3825 45 45.4561 34.9264 45.4561 22.5C45.4561 10.0736 35.3825 0 22.9561 0C10.5296 0 0.456055 10.0736 0.456055 22.5C0.456055 34.9264 10.5296 45 22.9561 45Z" fill="#3C5A9A"/>
<path d="M30.2721 6.90625H25.2878C22.33 6.90625 19.04 8.15028 19.04 12.4378C19.0544 13.9318 19.04 15.3625 19.04 16.9727H15.6182V22.4179H19.1459V38.0935H25.6283V22.3144H29.9068L30.294 16.9574H25.5166C25.5166 16.9574 25.5273 14.5744 25.5166 13.8824C25.5166 12.1881 27.2796 12.2851 27.3856 12.2851C28.2246 12.2851 29.8558 12.2875 30.2746 12.2851V6.90625H30.2721Z" fill="white"/>
</g>
<defs>
<clipPath id="clip0_1_74">
<rect width="45" height="45" fill="white" transform="translate(0.456055)"/>
</clipPath>
</defs>
</svg>
