<svg width="46" height="44" viewBox="0 0 46 44" fill="none" xmlns="http://www.w3.org/2000/svg">
  <g clip-path="url(#clip0_1_77)">
    <path
      d="M22.869 0C10.4923 0 0.456055 10.0345 0.456055 22.413C0.456055 32.3158 6.87805 40.7171 15.7835 43.6808C16.9036 43.8882 17.3149 43.1945 17.3149 42.6025C17.3149 42.0681 17.294 40.3024 17.2845 38.4296C11.049 39.7854 9.73326 35.7852 9.73326 35.7852C8.71373 33.1945 7.24473 32.5058 7.24473 32.5058C5.21129 31.1147 7.39801 31.1432 7.39801 31.1432C9.64871 31.3014 10.8338 33.4529 10.8338 33.4529C12.8328 36.8794 16.077 35.8887 17.356 35.3162C17.5571 33.8674 18.1381 32.8788 18.779 32.3191C13.8008 31.7522 8.56748 29.8304 8.56748 21.2425C8.56748 18.7956 9.44305 16.7961 10.8769 15.2265C10.6442 14.6619 9.87705 12.3824 11.094 9.29514C11.094 9.29514 12.9761 8.69273 17.2592 11.5926C19.0469 11.0958 20.9643 10.8469 22.869 10.8385C24.7738 10.8469 26.6926 11.0958 28.4838 11.5926C32.7618 8.69273 34.6413 9.29514 34.6413 9.29514C35.8612 12.3824 35.0938 14.6619 34.861 15.2265C36.298 16.7961 37.1676 18.7954 37.1676 21.2425C37.1676 29.8508 31.9244 31.7464 26.9336 32.3012C27.7375 32.9968 28.4538 34.3608 28.4538 36.4518C28.4538 39.4506 28.4278 41.8642 28.4278 42.6025C28.4278 43.1989 28.8312 43.8979 29.9674 43.6778C38.8679 40.7108 45.2819 32.3125 45.2819 22.413C45.2819 10.0345 35.247 0 22.869 0Z"
      fill="white" />
    <path
      d="M8.85055 31.9279C8.80133 32.0392 8.6259 32.0726 8.46646 31.9963C8.30387 31.9232 8.21246 31.7713 8.26519 31.6595C8.31353 31.5449 8.48896 31.5129 8.65121 31.5899C8.81416 31.6628 8.90697 31.8161 8.85055 31.9279ZM9.95305 32.9116C9.84617 33.0107 9.63717 32.9647 9.49531 32.8081C9.34871 32.6518 9.32129 32.443 9.42975 32.3422C9.53996 32.2433 9.74264 32.2895 9.88959 32.4459C10.0362 32.604 10.0647 32.8116 9.95287 32.9118M10.7094 34.1702C10.572 34.2656 10.3473 34.1762 10.2086 33.9768C10.0713 33.7777 10.0713 33.5386 10.2116 33.4428C10.3508 33.347 10.572 33.4331 10.7126 33.6309C10.8497 33.8336 10.8497 34.0726 10.7093 34.1704M11.9884 35.6279C11.8655 35.7633 11.604 35.7271 11.4124 35.5422C11.2166 35.3615 11.1619 35.105 11.2851 34.9695C11.4094 34.8338 11.6725 34.8719 11.8655 35.0552C12.0601 35.2356 12.1194 35.494 11.9884 35.6279ZM13.6415 36.1201C13.5875 36.2956 13.3354 36.3754 13.0816 36.3008C12.8281 36.224 12.6622 36.0183 12.7133 35.841C12.7661 35.6643 13.0192 35.5812 13.275 35.661C13.5281 35.7374 13.6942 35.9415 13.6415 36.1201ZM15.523 36.3288C15.5294 36.5137 15.314 36.667 15.0475 36.6703C14.7795 36.6761 14.5627 36.5265 14.5599 36.3448C14.5599 36.1581 14.7703 36.0062 15.0382 36.0018C15.3047 35.9965 15.523 36.1451 15.523 36.3288ZM17.3712 36.2579C17.4032 36.4383 17.2179 36.6236 16.9534 36.6728C16.6932 36.7202 16.4524 36.609 16.4192 36.4302C16.3868 36.2453 16.5756 36.0602 16.8352 36.0122C17.1003 35.9661 17.3374 36.0746 17.3712 36.2579Z"
      fill="white" />
  </g>
  <defs>
    <clipPath id="clip0_1_77">
      <rect width="45" height="43.776" fill="white" transform="translate(0.456055)" />
    </clipPath>
  </defs>
</svg>