<svg width="46" height="45" viewBox="0 0 46 45" fill="none" xmlns="http://www.w3.org/2000/svg">
<g clip-path="url(#clip0_1_26)">
<path d="M3.52432 40.0524H10.6834V22.6661L0.456055 14.9956V36.9843C0.456055 38.6795 1.82908 40.0526 3.52432 40.0526V40.0524Z" fill="#4285F4"/>
<path d="M35.2285 40.0524H42.3876C44.0828 40.0524 45.4558 38.6794 45.4558 36.9843V14.9956L35.2285 22.6661V40.0524Z" fill="#34A853"/>
<path d="M35.2285 9.37086V22.6663L45.4558 14.9959V10.905C45.4558 7.11321 41.1272 4.94758 38.0922 7.22316L35.2285 9.37086Z" fill="#FBBC04"/>
<path fill-rule="evenodd" clip-rule="evenodd" d="M10.6836 22.6666V9.37109L22.9563 18.5757L35.229 9.37109V22.6666L22.9563 31.8711L10.6836 22.6666Z" fill="#EA4335"/>
<path d="M0.456055 10.905V14.9959L10.6834 22.6663V9.37086L7.81971 7.22316C4.78467 4.94759 0.456055 7.11321 0.456055 10.9048V10.905Z" fill="#C5221F"/>
</g>
<defs>
<clipPath id="clip0_1_26">
<rect width="45" height="45" fill="white" transform="translate(0.456055)"/>
</clipPath>
</defs>
</svg>
