<svg width="46" height="38" viewBox="0 0 46 38" fill="none" xmlns="http://www.w3.org/2000/svg">
<g clip-path="url(#clip0_4_91)">
<path d="M26.1816 18.5132L30.568 23.5269L36.4662 27.2962L37.4946 18.544L36.4662 9.9873L30.4549 13.2989L26.1816 18.5132Z" fill="#00832D"/>
<path d="M0.727539 26.4836V33.9399C0.727539 35.6446 2.10824 37.0253 3.8129 37.0253H11.2692L12.8119 31.3893L11.2692 26.4836L6.15263 24.9409L0.727539 26.4836Z" fill="#0066DA"/>
<path d="M11.2692 0.000976562L0.727539 10.5426L6.15263 12.0853L11.2692 10.5426L12.7862 5.70375L11.2692 0.000976562Z" fill="#E94235"/>
<path d="M11.2692 10.5425H0.727539V26.4835H11.2692V10.5425Z" fill="#2684FC"/>
<path d="M43.2025 4.46409L36.4662 9.98689V27.2958L43.2334 32.8443C44.2464 33.6362 45.7274 32.9137 45.7274 31.6256V5.65709C45.7274 4.35353 44.213 3.63875 43.2025 4.46409ZM26.1816 18.5128V26.4833H11.269V37.0249H33.3808C35.0855 37.0249 36.4662 35.6442 36.4662 33.9396V27.2958L26.1816 18.5128Z" fill="#00AC47"/>
<path d="M33.3808 0.000976562H11.269V10.5426H26.1816V18.5131L36.4662 9.99241V3.08634C36.4662 1.38168 35.0855 0.000976562 33.3808 0.000976562Z" fill="#FFBA00"/>
</g>
<defs>
<clipPath id="clip0_4_91">
<rect width="45" height="37.026" fill="white" transform="translate(0.727539)"/>
</clipPath>
</defs>
</svg>
