<svg width="33" height="45" viewBox="0 0 33 45" fill="none" xmlns="http://www.w3.org/2000/svg">
<g clip-path="url(#clip0_4_86)">
<path d="M20.4552 0H3.0672C1.4328 0 0 1.431 0 3.069V41.9328C0 43.569 1.431 45.0018 3.069 45.0018H29.6604C31.2966 45.0018 32.7294 43.5708 32.7294 41.9328V12.2724L25.5708 7.1586L20.4552 0Z" fill="#4285F4"/>
<path d="M8.18115 32.7276H24.545V30.6828H8.18295L8.18115 32.7276ZM8.18115 36.819H20.4536V34.7742H8.18115V36.819ZM8.18115 22.5V24.5448H24.545V22.5H8.18115ZM8.18115 28.6362H24.545V26.5914H8.18295L8.18115 28.6362Z" fill="#F1F1F1"/>
<path d="M20.4551 0V9.2052C20.4551 10.8414 21.8861 12.2724 23.5223 12.2724H32.7275L20.4551 0Z" fill="#A1C2FA"/>
</g>
<defs>
<clipPath id="clip0_4_86">
<rect width="32.7276" height="45" fill="white"/>
</clipPath>
</defs>
</svg>
