<svg width="45" height="45" viewBox="0 0 45 45" fill="none" xmlns="http://www.w3.org/2000/svg">
<g clip-path="url(#clip0_7_29)">
<path d="M25.5464 44.3196C36.2903 44.3196 44.9999 35.9119 44.9999 25.5405C44.9999 15.169 36.2903 6.76123 25.5464 6.76123C14.8025 6.76123 6.09277 15.169 6.09277 25.5405C6.09277 35.9119 14.8025 44.3196 25.5464 44.3196Z" fill="black"/>
<path d="M20.526 40.3842C31.826 40.3842 41.052 31.532 41.052 20.5324C41.052 9.533 31.826 0.680664 20.526 0.680664C9.22613 0.680664 0 9.533 0 20.5324C0 31.532 9.22613 40.3842 20.526 40.3842Z" fill="#FF90E8"/>
<path fill-rule="evenodd" clip-rule="evenodd" d="M-0.106445 20.5323C-0.106445 9.4706 9.17092 0.574219 20.5259 0.574219C31.881 0.574219 41.1582 9.4706 41.1582 20.5323C41.1582 31.5942 31.881 40.4904 20.5259 40.4904C9.17092 40.4904 -0.106445 31.5942 -0.106445 20.5323ZM20.5259 0.7869C9.28113 0.7869 0.106236 9.59518 0.106236 20.5323C0.106236 31.4696 9.28113 40.2777 20.5259 40.2777C31.7708 40.2777 40.9455 31.4696 40.9455 20.5323C40.9455 9.59518 31.7708 0.7869 20.5259 0.7869Z" fill="black"/>
<path d="M18.9821 30.5476C13.2375 30.5476 9.8584 25.9062 9.8584 20.1326C9.8584 14.1325 13.5754 9.26465 20.6714 9.26465C27.9929 9.26465 30.4708 14.2459 30.5835 17.0759H25.2896C25.177 15.4911 23.8253 13.1137 20.5589 13.1137C17.0672 13.1137 14.8144 16.1703 14.8144 19.9062C14.8144 23.6421 17.0672 26.6985 20.5589 26.6985C23.7128 26.6985 25.0644 24.208 25.6276 21.7176H20.5589V19.6798H31.1946V30.0948H26.5286V23.5287C26.1906 25.9062 24.7264 30.5476 18.9821 30.5476Z" fill="black"/>
</g>
<defs>
<clipPath id="clip0_7_29">
<rect width="45" height="45" fill="white"/>
</clipPath>
</defs>
</svg>
