<svg width="46" height="45" viewBox="0 0 46 45" fill="none" xmlns="http://www.w3.org/2000/svg">
<g clip-path="url(#clip0_1_67)">
<path d="M15.4582 22.5C15.4582 18.358 18.8151 14.9994 22.957 14.9994C27.099 14.9994 30.4576 18.358 30.4576 22.5C30.4576 26.642 27.099 30.0006 22.957 30.0006C18.8151 30.0006 15.4582 26.642 15.4582 22.5ZM11.4036 22.5C11.4036 28.881 16.576 34.0535 22.957 34.0535C29.338 34.0535 34.5105 28.881 34.5105 22.5C34.5105 16.119 29.338 10.9465 22.957 10.9465C16.576 10.9465 11.4036 16.119 11.4036 22.5ZM32.2679 10.4884C32.2677 11.0224 32.4258 11.5445 32.7223 11.9886C33.0188 12.4328 33.4404 12.779 33.9336 12.9836C34.4269 13.1881 34.9698 13.2418 35.4936 13.1378C36.0174 13.0339 36.4986 12.7769 36.8763 12.3995C37.2541 12.022 37.5114 11.541 37.6158 11.0173C37.7202 10.4936 37.6669 9.95069 37.4628 9.45725C37.2586 8.96381 36.9127 8.54199 36.4688 8.24513C36.0249 7.94827 35.503 7.78971 34.969 7.7895H34.9679C34.2521 7.78983 33.5657 8.07426 33.0595 8.5803C32.5532 9.08634 32.2685 9.77262 32.2679 10.4884ZM13.867 40.8145C11.6734 40.7146 10.4811 40.3492 9.68869 40.0405C8.63821 39.6315 7.88869 39.1444 7.10065 38.3575C6.31261 37.5705 5.82481 36.8217 5.41765 35.7712C5.10877 34.9792 4.74337 33.7865 4.64365 31.5929C4.53457 29.2212 4.51279 28.5088 4.51279 22.5002C4.51279 16.4916 4.53637 15.7811 4.64365 13.4075C4.74355 11.2138 5.11165 10.0235 5.41765 9.22914C5.82661 8.17866 6.31369 7.42914 7.10065 6.6411C7.88761 5.85306 8.63641 5.36526 9.68869 4.9581C10.4807 4.64922 11.6734 4.28382 13.867 4.1841C16.2387 4.07502 16.9512 4.05324 22.957 4.05324C28.9629 4.05324 29.6761 4.07682 32.0497 4.1841C34.2434 4.284 35.4337 4.6521 36.2281 4.9581C37.2786 5.36526 38.0281 5.85414 38.8161 6.6411C39.6042 7.42806 40.0902 8.17866 40.4991 9.22914C40.808 10.0211 41.1734 11.2138 41.2731 13.4075C41.3822 15.7811 41.404 16.4916 41.404 22.5002C41.404 28.5088 41.3822 29.2192 41.2731 31.5929C41.1732 33.7865 40.806 34.9789 40.4991 35.7712C40.0902 36.8217 39.6031 37.5712 38.8161 38.3575C38.0292 39.1437 37.2786 39.6315 36.2281 40.0405C35.4361 40.3493 34.2434 40.7147 32.0497 40.8145C29.6781 40.9235 28.9656 40.9453 22.957 40.9453C16.9485 40.9453 16.238 40.9235 13.867 40.8145ZM13.6807 0.13626C11.2855 0.24534 9.64873 0.62514 8.21935 1.18134C6.73903 1.75572 5.48587 2.5263 4.23361 3.77658C2.98135 5.02686 2.21275 6.282 1.63837 7.76232C1.08217 9.1926 0.702371 10.8284 0.593291 13.2237C0.482411 15.6227 0.457031 16.3897 0.457031 22.5C0.457031 28.6103 0.482411 29.3773 0.593291 31.7763C0.702371 34.1717 1.08217 35.8074 1.63837 37.2377C2.21275 38.7171 2.98153 39.9737 4.23361 41.2234C5.48569 42.4732 6.73903 43.2427 8.21935 43.8187C9.65143 44.3749 11.2855 44.7547 13.6807 44.8637C16.081 44.9728 16.8468 45 22.957 45C29.0673 45 29.8343 44.9746 32.2333 44.8637C34.6288 44.7547 36.2644 44.3749 37.6947 43.8187C39.1741 43.2427 40.4282 42.4737 41.6805 41.2234C42.9327 39.9731 43.6997 38.7171 44.2757 37.2377C44.8319 35.8074 45.2135 34.1716 45.3208 31.7763C45.4299 29.3755 45.4552 28.6103 45.4552 22.5C45.4552 16.3897 45.4299 15.6227 45.3208 13.2237C45.2117 10.8283 44.8319 9.1917 44.2757 7.76232C43.6997 6.2829 42.9307 5.02884 41.6805 3.77658C40.4302 2.52432 39.1741 1.75572 37.6965 1.18134C36.2644 0.62514 34.6286 0.24354 32.2351 0.13626C29.8361 0.02718 29.0691 0 22.9588 0C16.8486 0 16.081 0.02538 13.6807 0.13626Z" fill="url(#paint0_radial_1_67)"/>
<path d="M15.4582 22.5C15.4582 18.358 18.8151 14.9994 22.957 14.9994C27.099 14.9994 30.4576 18.358 30.4576 22.5C30.4576 26.642 27.099 30.0006 22.957 30.0006C18.8151 30.0006 15.4582 26.642 15.4582 22.5ZM11.4036 22.5C11.4036 28.881 16.576 34.0535 22.957 34.0535C29.338 34.0535 34.5105 28.881 34.5105 22.5C34.5105 16.119 29.338 10.9465 22.957 10.9465C16.576 10.9465 11.4036 16.119 11.4036 22.5ZM32.2679 10.4884C32.2677 11.0224 32.4258 11.5445 32.7223 11.9886C33.0188 12.4328 33.4404 12.779 33.9336 12.9836C34.4269 13.1881 34.9698 13.2418 35.4936 13.1378C36.0174 13.0339 36.4986 12.7769 36.8763 12.3995C37.2541 12.022 37.5114 11.541 37.6158 11.0173C37.7202 10.4936 37.6669 9.95069 37.4628 9.45725C37.2586 8.96381 36.9127 8.54199 36.4688 8.24513C36.0249 7.94827 35.503 7.78971 34.969 7.7895H34.9679C34.2521 7.78983 33.5657 8.07426 33.0595 8.5803C32.5532 9.08634 32.2685 9.77262 32.2679 10.4884ZM13.867 40.8145C11.6734 40.7146 10.4811 40.3492 9.68869 40.0405C8.63821 39.6315 7.88869 39.1444 7.10065 38.3575C6.31261 37.5705 5.82481 36.8217 5.41765 35.7712C5.10877 34.9792 4.74337 33.7865 4.64365 31.5929C4.53457 29.2212 4.51279 28.5088 4.51279 22.5002C4.51279 16.4916 4.53637 15.7811 4.64365 13.4075C4.74355 11.2138 5.11165 10.0235 5.41765 9.22914C5.82661 8.17866 6.31369 7.42914 7.10065 6.6411C7.88761 5.85306 8.63641 5.36526 9.68869 4.9581C10.4807 4.64922 11.6734 4.28382 13.867 4.1841C16.2387 4.07502 16.9512 4.05324 22.957 4.05324C28.9629 4.05324 29.6761 4.07682 32.0497 4.1841C34.2434 4.284 35.4337 4.6521 36.2281 4.9581C37.2786 5.36526 38.0281 5.85414 38.8161 6.6411C39.6042 7.42806 40.0902 8.17866 40.4991 9.22914C40.808 10.0211 41.1734 11.2138 41.2731 13.4075C41.3822 15.7811 41.404 16.4916 41.404 22.5002C41.404 28.5088 41.3822 29.2192 41.2731 31.5929C41.1732 33.7865 40.806 34.9789 40.4991 35.7712C40.0902 36.8217 39.6031 37.5712 38.8161 38.3575C38.0292 39.1437 37.2786 39.6315 36.2281 40.0405C35.4361 40.3493 34.2434 40.7147 32.0497 40.8145C29.6781 40.9235 28.9656 40.9453 22.957 40.9453C16.9485 40.9453 16.238 40.9235 13.867 40.8145ZM13.6807 0.13626C11.2855 0.24534 9.64873 0.62514 8.21935 1.18134C6.73903 1.75572 5.48587 2.5263 4.23361 3.77658C2.98135 5.02686 2.21275 6.282 1.63837 7.76232C1.08217 9.1926 0.702371 10.8284 0.593291 13.2237C0.482411 15.6227 0.457031 16.3897 0.457031 22.5C0.457031 28.6103 0.482411 29.3773 0.593291 31.7763C0.702371 34.1717 1.08217 35.8074 1.63837 37.2377C2.21275 38.7171 2.98153 39.9737 4.23361 41.2234C5.48569 42.4732 6.73903 43.2427 8.21935 43.8187C9.65143 44.3749 11.2855 44.7547 13.6807 44.8637C16.081 44.9728 16.8468 45 22.957 45C29.0673 45 29.8343 44.9746 32.2333 44.8637C34.6288 44.7547 36.2644 44.3749 37.6947 43.8187C39.1741 43.2427 40.4282 42.4737 41.6805 41.2234C42.9327 39.9731 43.6997 38.7171 44.2757 37.2377C44.8319 35.8074 45.2135 34.1716 45.3208 31.7763C45.4299 29.3755 45.4552 28.6103 45.4552 22.5C45.4552 16.3897 45.4299 15.6227 45.3208 13.2237C45.2117 10.8283 44.8319 9.1917 44.2757 7.76232C43.6997 6.2829 42.9307 5.02884 41.6805 3.77658C40.4302 2.52432 39.1741 1.75572 37.6965 1.18134C36.2644 0.62514 34.6286 0.24354 32.2351 0.13626C29.8361 0.02718 29.0691 0 22.9588 0C16.8486 0 16.081 0.02538 13.6807 0.13626Z" fill="url(#paint1_radial_1_67)"/>
</g>
<defs>
<radialGradient id="paint0_radial_1_67" cx="0" cy="0" r="1" gradientUnits="userSpaceOnUse" gradientTransform="translate(6.43555 45.2126) scale(58.7437 58.7437)">
<stop offset="0.09" stop-color="#FA8F21"/>
<stop offset="0.78" stop-color="#D82D7E"/>
</radialGradient>
<radialGradient id="paint1_radial_1_67" cx="0" cy="0" r="1" gradientUnits="userSpaceOnUse" gradientTransform="translate(27.7476 47.2286) scale(46.2982 46.2982)">
<stop offset="0.64" stop-color="#8C3AAA" stop-opacity="0"/>
<stop offset="1" stop-color="#8C3AAA"/>
</radialGradient>
<clipPath id="clip0_1_67">
<rect width="45" height="45" fill="white" transform="translate(0.456055)"/>
</clipPath>
</defs>
</svg>
