<svg width="46" height="46" viewBox="0 0 46 46" fill="none" xmlns="http://www.w3.org/2000/svg">
<g clip-path="url(#clip0_1_81)">
<path d="M0.456055 3.31381C0.456055 1.53455 1.94562 0.090332 3.78184 0.090332H42.1303C43.9672 0.090332 45.4561 1.53455 45.4561 3.31381V41.8674C45.4561 43.6472 43.9672 45.0903 42.1303 45.0903H3.78184C1.9458 45.0903 0.456055 43.6473 0.456055 41.8679V3.31328V3.31381Z" fill="#006699"/>
<path d="M14.1312 37.7493V17.4902H7.3974V37.7493H14.1319H14.1312ZM10.7657 14.7246C13.1135 14.7246 14.5751 13.1689 14.5751 11.2248C14.5311 9.23637 13.1135 7.72412 10.8104 7.72412C8.5057 7.72412 7.00049 9.23637 7.00049 11.2246C7.00049 13.1688 8.46158 14.7244 10.7216 14.7244H10.7652L10.7657 14.7246ZM17.8585 37.7493H24.5918V26.4369C24.5918 25.8322 24.6357 25.226 24.8136 24.7941C25.3002 23.5838 26.4081 22.331 28.2688 22.331C30.7048 22.331 31.6798 24.1887 31.6798 26.9124V37.7493H38.413V26.1333C38.413 19.9109 35.0914 17.0152 30.6612 17.0152C27.029 17.0152 25.4338 19.0453 24.5475 20.428H24.5923V17.4909H17.8588C17.9467 19.3914 17.8583 37.75 17.8583 37.75L17.8585 37.7493Z" fill="white"/>
</g>
<defs>
<clipPath id="clip0_1_81">
<rect width="45" height="45.1807" fill="white" transform="translate(0.456055)"/>
</clipPath>
</defs>
</svg>
