<svg width="46" height="45" viewBox="0 0 46 45" fill="none" xmlns="http://www.w3.org/2000/svg">
<rect x="0.910156" width="45" height="45" rx="5" fill="black"/>
<g clip-path="url(#clip0_6_6)">
<path d="M14.6273 12.0469C20.5466 12.0469 25.3445 16.8784 25.3445 22.8377C25.3445 28.7972 20.5461 33.6282 14.6273 33.6282C8.70884 33.6282 3.91016 28.7972 3.91016 22.8377C3.91016 16.8785 8.7084 12.0469 14.6273 12.0469ZM31.7422 12.6789C34.7017 12.6789 37.1009 17.2267 37.1009 22.8377H37.1014C37.1014 28.4473 34.7022 32.9965 31.7428 32.9965C28.7834 32.9965 26.384 28.4473 26.384 22.8377C26.384 17.2282 28.7828 12.6789 31.7423 12.6789H31.7422ZM40.0254 13.7371C41.0661 13.7371 41.9102 17.8116 41.9102 22.8378C41.9102 27.8624 41.0664 31.9385 40.0254 31.9385C38.9845 31.9385 38.1412 27.8636 38.1412 22.8378C38.1412 17.8119 38.9849 13.7371 40.0254 13.7371Z" fill="white"/>
</g>
<defs>
<clipPath id="clip0_6_6">
<rect width="38" height="21.6752" fill="white" transform="translate(3.91016 12)"/>
</clipPath>
</defs>
</svg>
