<svg width="45" height="45" viewBox="0 0 45 45" fill="none" xmlns="http://www.w3.org/2000/svg">
<g clip-path="url(#clip0_6_12)">
<path d="M22.5 45C34.9264 45 45 34.9264 45 22.5C45 10.0736 34.9264 0 22.5 0C10.0736 0 0 10.0736 0 22.5C0 34.9264 10.0736 45 22.5 45Z" fill="#FF4500"/>
<path d="M37.5073 22.5C37.5118 22.8083 37.4736 23.116 37.3926 23.4135C37.3116 23.7111 37.189 23.9963 37.0281 24.2595C36.8678 24.5228 36.6709 24.7624 36.4437 24.9711C36.2164 25.1798 35.961 25.3553 35.6849 25.4925C35.691 25.5747 35.6961 25.6573 35.6989 25.74C35.7057 25.905 35.7057 26.0701 35.6989 26.235C35.6961 26.3177 35.691 26.4004 35.6849 26.4825C35.6849 31.5225 29.8123 35.6175 22.5673 35.6175C15.3223 35.6175 9.44985 31.5225 9.44985 26.4825C9.44366 26.4004 9.4386 26.3177 9.43579 26.235C9.42901 26.0701 9.42901 25.905 9.43579 25.74C9.4386 25.6573 9.44366 25.5747 9.44985 25.4925C9.01715 25.2936 8.63283 25.0031 8.32349 24.641C8.01415 24.279 7.78718 23.854 7.65829 23.3955C7.5296 22.9369 7.50219 22.4557 7.57795 21.9854C7.65371 21.5151 7.83083 21.0669 8.09704 20.6719C8.36301 20.2769 8.71173 19.9446 9.119 19.6978C9.52628 19.4511 9.98236 19.296 10.4556 19.2432C10.9289 19.1901 11.4081 19.2406 11.8599 19.3912C12.3118 19.5417 12.7255 19.7887 13.0723 20.115C13.7163 19.6786 14.391 19.2892 15.0912 18.9501C15.7915 18.6115 16.5154 18.3235 17.2573 18.0895C17.9993 17.8555 18.7575 17.676 19.5253 17.5517C20.2932 17.4274 21.0694 17.3593 21.8473 17.3475L23.5123 9.54004C23.5309 9.44947 23.5675 9.36397 23.6198 9.28747C23.6715 9.21154 23.7385 9.14629 23.8155 9.09622C23.8932 9.04616 23.9798 9.01185 24.0709 8.99497C24.1615 8.97866 24.2548 8.98035 24.3448 9.00004L29.8573 10.1025C30.4137 9.14685 31.5814 8.73735 32.6125 9.1356C33.6435 9.53385 34.233 10.6223 34.0024 11.7034C33.7723 12.7845 32.7902 13.5383 31.6866 13.4815C30.5824 13.4247 29.683 12.5742 29.5648 11.475L24.7498 10.4625L23.2873 17.4825C24.0557 17.4988 24.8224 17.5708 25.5807 17.6974C27.0991 17.9505 28.5731 18.4215 29.9569 19.0958C30.6481 19.4322 31.3141 19.8179 31.9498 20.25C32.4069 19.8112 32.9813 19.514 33.6036 19.3945C34.2259 19.2745 34.8696 19.3372 35.457 19.575C36.0445 19.8127 36.5507 20.2154 36.9145 20.7343C37.2784 21.2534 37.4843 21.8666 37.5073 22.5ZM15.1783 25.6112C15.292 25.884 15.4573 26.1321 15.6666 26.3408C15.8753 26.55 16.1233 26.7154 16.3962 26.829C16.6692 26.942 16.9618 27.0001 17.2573 27C18.1675 27 18.9876 26.4516 19.3363 25.6112C19.6845 24.7703 19.4916 23.8028 18.8481 23.1593C18.2046 22.5158 17.2371 22.3228 16.3962 22.671C15.5558 23.0198 15.0073 23.8399 15.0073 24.75C15.0073 25.0453 15.0653 25.3378 15.1783 25.6112ZM28.0652 31.0123C28.1805 30.8998 28.2463 30.7463 28.2486 30.5854C28.2508 30.424 28.1884 30.2687 28.0759 30.1534C27.9634 30.0381 27.8098 29.9723 27.649 29.97C27.4875 29.9678 27.3323 30.0302 27.2023 30.1275C26.864 30.3702 26.5057 30.5838 26.1313 30.766C25.7569 30.9483 25.3678 31.0986 24.9681 31.2154C24.5687 31.3318 24.1598 31.4145 23.7463 31.4623C23.3323 31.5102 22.9155 31.5225 22.4998 31.5C22.0847 31.5186 21.6685 31.5017 21.2562 31.45C20.8438 31.3987 20.4365 31.3122 20.0389 31.1912C19.6407 31.0708 19.2542 30.9167 18.8824 30.7311C18.5106 30.5455 18.1551 30.3283 17.8198 30.0825C17.7034 29.9869 17.5555 29.938 17.4047 29.9453C17.254 29.9526 17.1117 30.0162 17.0048 30.1225C16.8985 30.2293 16.8349 30.3717 16.8276 30.5224C16.8203 30.6732 16.8692 30.8211 16.9648 30.9375C17.3603 31.2357 17.7805 31.4989 18.2209 31.725C18.6613 31.9512 19.1209 32.1385 19.5934 32.2858C20.0659 32.4332 20.5502 32.5395 21.0413 32.6042C21.5323 32.6683 22.0279 32.6903 22.5223 32.67C23.0168 32.6903 23.5123 32.6683 24.0034 32.6042C24.987 32.4749 25.941 32.1775 26.8238 31.725C27.2642 31.4989 27.6844 31.2357 28.0798 30.9375L28.0652 31.0123ZM27.6523 27.18C27.9572 27.1834 28.2598 27.1243 28.5417 27.0073C28.8235 26.8898 29.0783 26.7165 29.2909 26.4977C29.5035 26.2789 29.6689 26.019 29.778 25.7338C29.8872 25.449 29.9372 25.1449 29.9248 24.84C29.9248 23.9299 29.3764 23.1098 28.536 22.761C27.6951 22.4128 26.7276 22.6058 26.0841 23.2493C25.4406 23.8928 25.2477 24.8603 25.5958 25.7012C25.9446 26.5416 26.7647 27.09 27.6748 27.09L27.6523 27.18Z" fill="white"/>
</g>
<defs>
<clipPath id="clip0_6_12">
<rect width="45" height="45" fill="white"/>
</clipPath>
</defs>
</svg>
