<svg width="40" height="45" viewBox="0 0 40 45" fill="none" xmlns="http://www.w3.org/2000/svg">
<g clip-path="url(#clip0_1_37)">
<path d="M34.4877 8.83671C34.4567 8.61171 34.2596 8.48719 34.0967 8.47347C33.9341 8.45991 30.4932 8.20486 30.4932 8.20486C30.4932 8.20486 28.1034 5.83234 27.8411 5.56974C27.5786 5.30729 27.0661 5.38712 26.8671 5.44568C26.8378 5.45431 26.345 5.60642 25.5297 5.85869C24.7315 3.56154 23.3226 1.45054 20.844 1.45054C20.7756 1.45054 20.7052 1.45332 20.6348 1.45733C19.9299 0.525117 19.0567 0.120117 18.3025 0.120117C12.5288 0.120117 9.77035 7.33784 8.90548 11.0056C6.66196 11.7008 5.06815 12.1951 4.86458 12.259C3.61228 12.6518 3.57268 12.6913 3.40824 13.8713C3.28449 14.7647 0.0078125 40.1048 0.0078125 40.1048L25.5404 44.8886L39.3748 41.8958C39.3748 41.8958 34.5182 9.06171 34.4877 8.83671ZM24.1186 6.29513L21.9581 6.96381C21.9589 6.81155 21.9596 6.66176 21.9596 6.49794C21.9596 5.07027 21.7615 3.92077 21.4435 3.00952C22.7206 3.16979 23.5712 4.62289 24.1186 6.29513ZM19.8593 3.29262C20.2144 4.18229 20.4452 5.45909 20.4452 7.18203C20.4452 7.27018 20.4444 7.35078 20.4437 7.43231C19.0387 7.86751 17.5119 8.34001 15.9817 8.81405C16.8409 5.49823 18.4513 3.89673 19.8593 3.29262ZM18.1439 1.66876C18.3931 1.66876 18.6441 1.75337 18.8844 1.91873C17.034 2.78945 15.0506 4.98243 14.213 9.36176L10.6861 10.4541C11.6671 7.11376 13.9968 1.66876 18.1439 1.66876Z" fill="#95BF46"/>
<path d="M34.0966 8.47349C33.934 8.45993 30.493 8.20488 30.493 8.20488C30.493 8.20488 28.1033 5.83236 27.841 5.56976C27.7428 5.47205 27.6104 5.42197 27.472 5.40039L25.5415 44.8884L39.3747 41.8959C39.3747 41.8959 34.5181 9.06173 34.4876 8.83673C34.4566 8.61173 34.2595 8.48721 34.0966 8.47349Z" fill="#5E8E3E"/>
<path d="M20.8441 16.1177L19.1383 21.192C19.1383 21.192 17.6437 20.3943 15.8117 20.3943C13.1259 20.3943 12.9907 22.0798 12.9907 22.5045C12.9907 24.822 19.0318 25.71 19.0318 31.1383C19.0318 35.4092 16.323 38.1593 12.6706 38.1593C8.28776 38.1593 6.04639 35.4315 6.04639 35.4315L7.21993 31.5541C7.21993 31.5541 9.52387 33.5321 11.468 33.5321C12.7383 33.5321 13.255 32.532 13.255 31.8012C13.255 28.7782 8.29885 28.6433 8.29885 23.6759C8.29885 19.4951 11.2997 15.4492 17.3571 15.4492C19.6911 15.4492 20.8441 16.1177 20.8441 16.1177Z" fill="white"/>
</g>
<defs>
<clipPath id="clip0_1_37">
<rect width="39.456" height="45" fill="white"/>
</clipPath>
</defs>
</svg>
