<svg width="46" height="46" viewBox="0 0 46 46" fill="none" xmlns="http://www.w3.org/2000/svg">
<g clip-path="url(#clip0_1_51)">
<path fill-rule="evenodd" clip-rule="evenodd" d="M16.9551 0C14.4675 0.00183854 12.4543 2.02055 12.4562 4.50809C12.4543 6.99563 14.4694 9.01434 16.9569 9.01618H21.4577V4.50993C21.4595 2.02239 19.4445 0.00367707 16.9551 0C16.9569 0 16.9569 0 16.9551 0ZM16.9551 12.024H4.9568C2.46926 12.0259 0.454221 14.0446 0.45606 16.5321C0.452383 19.0197 2.46742 21.0384 4.95496 21.042H16.9551C19.4426 21.0402 21.4577 19.0215 21.4558 16.534C21.4577 14.0446 19.4426 12.0259 16.9551 12.024Z" fill="#36C5F0"/>
<path fill-rule="evenodd" clip-rule="evenodd" d="M45.4558 16.5321C45.4577 14.0446 43.4426 12.0259 40.9551 12.024C38.4675 12.0259 36.4525 14.0446 36.4543 16.5321V21.042H40.9551C43.4426 21.0402 45.4577 19.0215 45.4558 16.5321ZM33.4557 16.5321V4.50809C33.4575 2.02239 31.4443 0.00367707 28.9568 0C26.4693 0.00183854 24.4542 2.02055 24.4561 4.50809V16.5321C24.4524 19.0197 26.4674 21.0384 28.955 21.042C31.4425 21.0402 33.4575 19.0215 33.4557 16.5321Z" fill="#2EB67D"/>
<path fill-rule="evenodd" clip-rule="evenodd" d="M28.9553 45.0903C31.4429 45.0884 33.4579 43.0697 33.4561 40.5822C33.4579 38.0946 31.4429 36.0759 28.9553 36.0741H24.4546V40.5822C24.4528 43.0679 26.4678 45.0866 28.9553 45.0903ZM28.9553 33.0644H40.9554C43.443 33.0626 45.458 31.0439 45.4562 28.5563C45.4599 26.0688 43.4448 24.0501 40.9573 24.0464H28.9572C26.4696 24.0482 24.4546 26.0669 24.4564 28.5545C24.4546 31.0439 26.4678 33.0626 28.9553 33.0644Z" fill="#ECB22E"/>
<path fill-rule="evenodd" clip-rule="evenodd" d="M0.456056 28.5559C0.454217 31.0435 2.46925 33.0622 4.95679 33.064C7.44433 33.0622 9.45936 31.0435 9.45753 28.5559V24.0479H4.95679C2.46925 24.0497 0.454217 26.0684 0.456056 28.5559ZM12.4562 28.5559V40.58C12.4525 43.0675 14.4675 45.0862 16.9551 45.0899C19.4426 45.0881 21.4576 43.0693 21.4558 40.5818V28.5596C21.4595 26.0721 19.4445 24.0534 16.9569 24.0497C14.4675 24.0497 12.4543 26.0684 12.4562 28.5559Z" fill="#E01E5A"/>
</g>
<defs>
<clipPath id="clip0_1_51">
<rect width="45" height="45.0901" fill="white" transform="translate(0.456055)"/>
</clipPath>
</defs>
</svg>
