<svg width="45" height="25" viewBox="0 0 45 25" fill="none" xmlns="http://www.w3.org/2000/svg">
<g clip-path="url(#clip0_1_19)">
<path d="M0 20.4827C0 21.0411 0.202446 21.4634 0.607267 21.7496C1.0121 22.0358 1.44486 22.1369 1.90554 22.0532C2.33827 21.9695 2.64192 21.8159 2.81646 21.5925C2.99094 21.3692 3.07822 20.9992 3.07822 20.4827V14.4101C3.07822 13.9773 2.92817 13.6109 2.628 13.3108C2.32791 13.0106 1.96146 12.8606 1.52867 12.8606C1.10986 12.8606 0.750403 13.0106 0.450252 13.3108C0.150102 13.6109 0 13.9773 0 14.4101V20.4827ZM4.81619 23.0793C4.81619 23.4842 4.95929 23.7878 5.24546 23.9902C5.53166 24.1927 5.89814 24.2938 6.34481 24.2938C6.80548 24.2938 7.17889 24.1926 7.46509 23.9902C7.75126 23.7878 7.89438 23.4842 7.89438 23.0793V8.92387C7.89438 8.50506 7.74426 8.14557 7.44416 7.84545C7.14401 7.54536 6.77757 7.39525 6.34481 7.39525C5.92602 7.39525 5.56651 7.54536 5.26641 7.84545C4.96624 8.14562 4.81619 8.50506 4.81619 8.92387V23.0793ZM9.61145 23.7494C9.61145 24.1542 9.75803 24.4578 10.0512 24.6603C10.3443 24.8627 10.7213 24.9639 11.182 24.9639C11.6287 24.9639 11.9951 24.8627 12.2813 24.6603C12.5675 24.4578 12.7106 24.1542 12.7106 23.7494V10.8294C12.7106 10.3966 12.5605 10.0267 12.2604 9.71956C11.9602 9.41246 11.6008 9.25894 11.182 9.25894C10.7492 9.25894 10.3793 9.41246 10.0722 9.71956C9.76506 10.0267 9.61149 10.3966 9.61149 10.8294V23.7494H9.61145ZM14.4276 23.8122C14.4276 24.58 14.9442 24.9639 15.9772 24.9639C17.0102 24.9639 17.5267 24.58 17.5267 23.8122V2.87221C17.5267 1.69956 17.1707 1.03648 16.4588 0.882899C15.9981 0.771209 15.5444 0.903833 15.0977 1.28075C14.651 1.65767 14.4276 2.18813 14.4276 2.87219V23.8122H14.4276ZM19.3276 24.4194V1.63674C19.3276 0.910835 19.544 0.478079 19.9768 0.338452C20.9121 0.115108 21.8404 0.00341797 22.7618 0.00341797C24.8976 0.00341797 26.887 0.505979 28.7296 1.5111C30.5724 2.51622 32.0626 3.88779 33.2003 5.6258C34.3381 7.36388 34.9977 9.27982 35.1792 11.3739C36.0307 11.0109 36.9381 10.8294 37.9013 10.8294C39.8557 10.8294 41.5274 11.5204 42.9164 12.9025C44.3055 14.2846 45 15.9458 45 17.8862C45 19.8407 44.3055 21.5089 42.9164 22.8909C41.5274 24.2729 39.8627 24.964 37.9222 24.964L19.7045 24.943C19.5788 24.9011 19.4846 24.8243 19.4217 24.7127C19.3589 24.601 19.3276 24.5032 19.3276 24.4194Z" fill="url(#paint0_linear_1_19)"/>
</g>
<defs>
<linearGradient id="paint0_linear_1_19" x1="56370.3" y1="941.814" x2="56370.3" y2="33921.8" gradientUnits="userSpaceOnUse">
<stop stop-color="#FF8800"/>
<stop offset="1" stop-color="#FF3300"/>
</linearGradient>
<clipPath id="clip0_1_19">
<rect width="45" height="24.966" fill="white"/>
</clipPath>
</defs>
</svg>
