<svg width="46" height="45" viewBox="0 0 46 45" fill="none" xmlns="http://www.w3.org/2000/svg">
<g clip-path="url(#clip0_1_63)">
<path d="M22.9561 0C10.5292 0 0.456055 10.0732 0.456055 22.5C0.456055 34.9268 10.5292 45 22.9561 45C35.3829 45 45.4561 34.9268 45.4561 22.5C45.4561 10.0747 35.3829 0.00153531 22.9561 0ZM33.2749 32.4504C32.8711 33.1136 32.0067 33.3209 31.3465 32.9171C26.0635 29.6883 19.4126 28.9591 11.5809 30.7477C10.8256 30.9212 10.0733 30.4483 9.9013 29.6929C9.72781 28.9376 10.1991 28.1853 10.9561 28.0133C19.5262 26.0558 26.8788 26.8987 32.8097 30.522C33.4699 30.9289 33.6802 31.7902 33.2749 32.4504ZM36.0277 26.326C35.5195 27.152 34.4387 27.4099 33.6142 26.9033C27.5681 23.1863 18.347 22.11 11.194 24.281C10.2667 24.5619 9.28717 24.0384 9.00467 23.1126C8.72525 22.1853 9.24879 21.2073 10.1746 20.9248C18.3455 18.4452 28.5047 19.6459 35.4489 23.914C36.2749 24.4222 36.5359 25.5015 36.0277 26.326ZM36.2641 19.9452C29.0113 15.6387 17.0482 15.2426 10.1239 17.3429C9.01235 17.6807 7.8363 17.0527 7.50007 15.9411C7.16383 14.8296 7.79024 13.6535 8.90334 13.3158C16.8517 10.9038 30.063 11.369 38.412 16.325C39.4115 16.9191 39.7401 18.2103 39.1475 19.2083C38.5564 20.2093 37.2621 20.5394 36.2641 19.9452Z" fill="#2EBD59"/>
</g>
<defs>
<clipPath id="clip0_1_63">
<rect width="45" height="45" fill="white" transform="translate(0.456055)"/>
</clipPath>
</defs>
</svg>
