<svg width="46" height="45" viewBox="0 0 46 45" fill="none" xmlns="http://www.w3.org/2000/svg">
<g clip-path="url(#clip0_1_57)">
<path d="M22.9561 45C35.3824 45 45.4561 34.9264 45.4561 22.5C45.4561 10.0736 35.3824 0 22.9561 0C10.5297 0 0.456055 10.0736 0.456055 22.5C0.456055 34.9264 10.5297 45 22.9561 45Z" fill="#34AADF"/>
<path d="M9.82022 22.3047C9.82022 22.3047 21.0702 17.6877 24.9719 16.0619C26.4676 15.4117 31.5398 13.3307 31.5398 13.3307C31.5398 13.3307 33.8809 12.4203 33.6858 14.6313C33.6207 15.5417 33.1005 18.7281 32.5803 22.1746C31.7999 27.0518 30.9546 32.3841 30.9546 32.3841C30.9546 32.3841 30.8245 33.8798 29.719 34.1399C28.6136 34.4 26.7927 33.2296 26.4676 32.9694C26.2074 32.7744 21.5904 29.848 19.8997 28.4174C19.4445 28.0272 18.9243 27.2469 19.9647 26.3365C22.3057 24.1905 25.1019 21.5244 26.7927 19.8336C27.5731 19.0532 28.3534 17.2325 25.1019 19.4434C20.4849 22.6298 15.9329 25.6212 15.9329 25.6212C15.9329 25.6212 14.8924 26.2714 12.9416 25.6861C10.9907 25.101 8.71466 24.3206 8.71466 24.3206C8.71466 24.3206 7.15406 23.3452 9.82022 22.3047Z" fill="white"/>
</g>
<defs>
<clipPath id="clip0_1_57">
<rect width="45" height="45" fill="white" transform="translate(0.456055)"/>
</clipPath>
</defs>
</svg>
