<svg width="39" height="45" viewBox="0 0 39 45" fill="none" xmlns="http://www.w3.org/2000/svg">
<g clip-path="url(#clip0_7_22)">
<path d="M15.2161 17.3862V15.6658C14.6189 15.5712 14.0158 15.5194 13.4112 15.5108C7.55814 15.4983 2.37628 19.2913 0.618603 24.8741C-1.13907 30.457 0.93566 36.5344 5.73994 39.8771C3.9782 37.9917 2.79983 35.6366 2.34707 33.0962C1.89432 30.5558 2.18653 27.9386 3.18843 25.5606C4.19033 23.1826 5.85909 21.1454 7.99329 19.6949C10.1275 18.2444 12.6359 17.4426 15.2157 17.3864L15.2161 17.3862Z" fill="#25F4EE"/>
<path d="M15.5405 36.8739C18.8129 36.8694 21.5028 34.2914 21.6461 31.022V1.84729H26.976C26.8672 1.23765 26.8153 0.619234 26.821 0L19.5308 0V29.1466C19.4096 32.4326 16.7132 35.0354 13.4251 35.0407C12.4425 35.0324 11.4759 34.7907 10.605 34.3357C11.1695 35.1178 11.9108 35.7553 12.7685 36.1964C13.6262 36.6375 14.576 36.8697 15.5405 36.8739ZM36.9313 11.746V10.1244C34.9697 10.1251 33.0516 9.54631 31.4179 8.46059C32.8501 10.1255 34.7854 11.2788 36.9313 11.746Z" fill="#25F4EE"/>
<path d="M31.4187 8.46056C29.8093 6.62793 28.9221 4.27204 28.9229 1.83301H26.9768C27.2282 3.18152 27.7517 4.46467 28.5154 5.60414C29.2791 6.74362 30.267 7.71553 31.4187 8.46056ZM13.4119 22.8012C12.047 22.8081 10.7236 23.2711 9.65214 24.1166C8.58065 24.9621 7.82255 26.1415 7.49837 27.4673C7.17419 28.7931 7.30253 30.1893 7.863 31.4338C8.42346 32.6783 9.38387 33.6997 10.5915 34.3357C9.93126 33.424 9.53585 32.3475 9.449 31.2252C9.36215 30.1029 9.58725 28.9784 10.0994 27.976C10.6116 26.9736 11.3909 26.1323 12.3513 25.545C13.3116 24.9578 14.4156 24.6474 15.5413 24.6482C16.1532 24.6563 16.7609 24.7515 17.346 24.9311V17.5133C16.7485 17.4237 16.1454 17.3766 15.5413 17.3723H15.2168V23.0126C14.6286 22.8548 14.0206 22.7836 13.4119 22.8012Z" fill="#FE2C55"/>
<path d="M36.9317 11.7461V17.3866C33.3003 17.3795 29.7632 16.23 26.8214 14.101V28.9211C26.8058 36.3161 20.8065 42.3029 13.4115 42.3029C10.665 42.3078 7.98469 41.4604 5.74023 39.8775C7.57045 41.8461 9.95107 43.2178 12.572 43.8141C15.193 44.4104 17.9327 44.2036 20.4345 43.2207C22.9362 42.2377 25.0839 40.5241 26.5979 38.3031C28.1119 36.0821 28.9219 33.4567 28.9225 30.7688V15.9906C31.8742 18.1056 35.4157 19.2401 39.0469 19.2338V11.9712C38.336 11.9691 37.6272 11.8936 36.9317 11.7461Z" fill="#FE2C55"/>
<path d="M26.8214 28.9209V14.1008C29.7721 16.2177 33.3142 17.3524 36.9457 17.344V11.7038C34.8003 11.2507 32.8604 10.1124 31.4183 8.46056C30.2666 7.71553 29.2787 6.74362 28.515 5.60414C27.7513 4.46467 27.2278 3.18152 26.9764 1.83301H21.6466V31.0224C21.5947 32.293 21.1483 33.5158 20.3694 34.521C19.5905 35.5262 18.5179 36.2637 17.3005 36.6313C16.0832 36.9988 14.7816 36.9779 13.5766 36.5716C12.3717 36.1653 11.3232 35.3938 10.5769 34.3642C9.36901 33.7283 8.40839 32.7069 7.84778 31.4623C7.28718 30.2177 7.15876 28.8214 7.48297 27.4955C7.80717 26.1695 8.56537 24.99 9.63701 24.1445C10.7087 23.299 12.0322 22.836 13.3972 22.8293C14.0094 22.8347 14.6175 22.9298 15.2021 23.1114V17.4709C12.6084 17.5149 10.0836 18.3126 7.93536 19.7667C5.78717 21.2209 4.10848 23.2686 3.10396 25.6603C2.09945 28.052 1.81252 30.6843 2.27816 33.2363C2.7438 35.7882 3.94189 38.1496 5.72634 40.0324C7.99285 41.5631 10.677 42.3561 13.4115 42.3027C20.8065 42.3027 26.8058 36.3159 26.8214 28.9209Z" fill="white"/>
</g>
<defs>
<clipPath id="clip0_7_22">
<rect width="38.75" height="45" fill="white"/>
</clipPath>
</defs>
</svg>
