<svg width="45" height="37" viewBox="0 0 45 37" fill="none" xmlns="http://www.w3.org/2000/svg">
<path d="M14.152 36.5853C31.134 36.5853 40.4209 22.5114 40.4209 10.3068C40.4209 9.90719 40.4126 9.50923 40.3947 9.11305C42.2017 7.80505 43.7611 6.18553 45 4.33043C43.3457 5.06617 41.5656 5.56135 39.698 5.78461C41.6042 4.64122 43.0676 2.83235 43.7581 0.676182C41.9457 1.7517 39.963 2.50989 37.8955 2.91804C36.2107 1.12281 33.8121 0 31.1563 0C26.0577 0 21.9232 4.13615 21.9232 9.23466C21.9232 9.9594 22.0043 10.6643 22.1627 11.3406C14.4893 10.9543 7.68526 7.27911 3.13152 1.69079C2.31136 3.10028 1.87997 4.70219 1.8814 6.33293C1.8814 9.5373 3.51128 12.366 5.98991 14.0209C4.52374 13.9761 3.08982 13.5799 1.8086 12.8657C1.80723 12.9045 1.80723 12.9423 1.80723 12.9838C1.80723 17.4566 4.98958 21.1911 9.21413 22.0374C8.42074 22.2534 7.60195 22.3628 6.77962 22.3622C6.18572 22.3622 5.60699 22.3038 5.04445 22.1958C6.21986 25.8655 9.62814 28.536 13.6691 28.6106C10.5091 31.0883 6.52856 32.564 2.20225 32.564C1.46629 32.5646 0.730933 32.5219 0 32.436C4.08609 35.056 8.93728 36.5853 14.152 36.5853Z" fill="#1DA1F2"/>
</svg>
