<svg width="46" height="45" viewBox="0 0 46 45" fill="none" xmlns="http://www.w3.org/2000/svg">
<g clip-path="url(#clip0_1_41)">
<path d="M39.8311 0H6.08105C2.97445 0 0.456055 2.5184 0.456055 5.625V39.375C0.456055 42.4816 2.97445 45 6.08105 45H39.8311C42.9377 45 45.4561 42.4816 45.4561 39.375V5.625C45.4561 2.5184 42.9377 0 39.8311 0Z" fill="#7B519D"/>
<path fill-rule="evenodd" clip-rule="evenodd" d="M37.5384 30.3624C36.4663 29.4993 35.3206 28.7247 34.1929 27.9333C31.9438 26.3536 29.8866 26.2308 28.2083 28.7723C27.2659 30.1991 25.9465 30.2616 24.567 29.6356C20.764 27.9112 17.8273 25.2543 16.1071 21.3889C15.3461 19.6787 15.3562 18.1454 17.1366 16.9359C18.0792 16.2962 19.0289 15.5393 18.9529 14.1416C18.8538 12.3191 14.4287 6.22852 12.6813 5.58569C11.9582 5.31965 11.2381 5.33696 10.5025 5.5842C6.40503 6.96215 4.70787 10.332 6.33323 14.322C11.1822 26.2261 19.7155 34.5133 31.462 39.5714C32.1318 39.8594 32.8758 39.9746 33.2525 40.0779C35.9268 40.1048 39.0597 37.5282 39.9644 34.9711C40.8355 32.5111 38.9945 31.5346 37.5384 30.3624ZM24.3675 6.80614C32.955 8.1267 36.9155 12.2101 38.009 20.8594C38.1104 21.6583 37.8128 22.8605 38.9527 22.8827C40.144 22.9054 39.8569 21.721 39.8669 20.9213C39.9677 12.7752 32.8648 5.22349 24.6158 4.94506C23.9934 5.03462 22.7057 4.51589 22.6253 5.9108C22.5718 6.85123 23.656 6.69672 24.3675 6.80614Z" fill="white"/>
<path fill-rule="evenodd" clip-rule="evenodd" d="M26.0472 9.17782C25.2212 9.07832 24.1308 8.68914 23.9377 9.83524C23.7362 11.0382 24.9516 10.916 25.7325 11.0908C31.0363 12.2762 32.8831 14.2067 33.7564 19.4678C33.8839 20.2348 33.6305 21.4286 34.934 21.2308C35.9 21.0837 35.5511 20.0603 35.6319 19.4626C35.6747 14.4115 31.3465 9.81414 26.0472 9.17782Z" fill="white"/>
<path fill-rule="evenodd" clip-rule="evenodd" d="M26.5343 13.308C25.983 13.3216 25.4418 13.3813 25.2391 13.9705C24.9348 14.8512 25.5751 15.0612 26.2268 15.1659C28.4025 15.5151 29.5475 16.7981 29.7649 18.9677C29.8236 19.5566 30.1973 20.0338 30.7661 19.9666C31.5544 19.8726 31.6257 19.1709 31.6015 18.5046C31.6405 16.0671 28.8854 13.2497 26.5343 13.308Z" fill="white"/>
</g>
<defs>
<clipPath id="clip0_1_41">
<rect width="45" height="45" fill="white" transform="translate(0.456055)"/>
</clipPath>
</defs>
</svg>
