<svg width="45" height="39" viewBox="0 0 45 39" fill="none" xmlns="http://www.w3.org/2000/svg">
<g clip-path="url(#clip0_6_10)">
<path d="M44.973 8.98207C44.7714 13.3507 41.7132 19.3339 35.7984 26.9299C29.682 34.8607 24.5052 38.8279 20.2716 38.8279C17.6508 38.8279 15.4314 36.4087 13.617 31.5685L9.98817 18.2593C8.64177 13.4173 7.19637 10.9981 5.65197 10.9981C5.31537 10.9981 4.13997 11.7037 2.12217 13.1149L0.00537109 10.3933C2.20497 8.46007 4.38837 6.51067 6.55917 4.54507C9.51657 1.99087 11.7342 0.646272 13.2138 0.513072C16.7094 0.176472 18.8604 2.56327 19.6668 7.67167C20.5398 13.1833 21.1464 16.6123 21.4812 17.9551C22.4892 22.5253 23.598 24.8113 24.8076 24.8113C25.749 24.8113 27.1602 23.3317 29.043 20.3743C30.9258 17.4169 31.9338 15.1651 32.067 13.6189C32.3352 11.0647 31.3272 9.78667 29.043 9.78667C27.9684 9.78667 26.8578 10.0225 25.7166 10.4923C27.9342 3.29947 32.1696 -0.194328 38.421 0.00727198C43.0578 0.142272 45.2412 3.13387 44.973 8.98207Z" fill="#1AB7EA"/>
</g>
<defs>
<clipPath id="clip0_6_10">
<rect width="45" height="38.826" fill="white"/>
</clipPath>
</defs>
</svg>
