<svg width="45" height="45" viewBox="0 0 45 45" fill="none" xmlns="http://www.w3.org/2000/svg">
<g clip-path="url(#clip0_1_21)">
<path d="M45 38.25C45 41.9781 41.978 45 38.25 45H6.75C3.0219 45 0 41.9781 0 38.25V6.75C0 3.02205 3.02205 0 6.75 0H38.25C41.978 0 45 3.02205 45 6.75V38.25Z" fill="black"/>
<path d="M30.1202 16.782C26.4883 16.9718 23.33 18.0728 20.7659 20.5602C18.1753 23.0733 16.9928 26.1528 17.3159 29.9703C15.8963 29.7945 14.6033 29.601 13.303 29.4915C12.8539 29.4537 12.3209 29.5074 11.9405 29.7221C10.6778 30.4346 9.46746 31.239 8.03256 32.136C8.29581 30.9453 8.46621 29.9025 8.76786 28.8998C8.98971 28.1627 8.88696 27.7526 8.20791 27.2723C3.84801 24.1941 2.01021 19.5876 3.38556 14.8448C4.65801 10.4573 7.78281 7.79643 12.0287 6.40938C17.8241 4.51638 24.337 6.44732 27.8608 11.0484C29.1335 12.7104 29.914 14.5758 30.1202 16.782ZM13.4047 15.3042C13.4381 14.4368 12.6865 13.6553 11.7937 13.6292C10.8796 13.6023 10.1278 14.3009 10.1011 15.2016C10.0741 16.1145 10.7723 16.8461 11.693 16.8695C12.6058 16.8926 13.3709 16.1931 13.4047 15.3042ZM22.1258 13.6286C21.2297 13.6451 20.4725 14.4083 20.4884 15.2792C20.5048 16.1819 21.2476 16.8881 22.169 16.877C23.0929 16.8659 23.7935 16.1522 23.7847 15.2304C23.7772 14.3256 23.0377 13.6119 22.1258 13.6286Z" fill="white"/>
<path d="M38.28 39.4245C37.1299 38.9124 36.075 38.1441 34.9518 38.0268C33.8329 37.91 32.6568 38.5554 31.4862 38.6751C27.9205 39.0399 24.7261 38.0462 22.0921 35.6103C17.0826 30.9767 17.7984 23.8722 23.5942 20.0751C28.7454 16.7004 36.2998 17.8254 39.9316 22.508C43.101 26.594 42.7285 32.018 38.8594 35.4506C37.7398 36.444 37.3371 37.2615 38.0554 38.5712C38.1879 38.813 38.203 39.1191 38.28 39.4245ZM25.1889 26.7497C25.921 26.7504 26.5239 26.1774 26.5516 25.4543C26.5809 24.6887 25.9651 24.0465 25.1985 24.0434C24.4393 24.0399 23.8035 24.6911 23.83 25.4453C23.8549 26.1659 24.462 26.7488 25.1889 26.7497ZM33.628 24.0464C32.9178 24.0414 32.314 24.623 32.2851 25.3407C32.2543 26.1083 32.8509 26.7386 33.6105 26.7405C34.3452 26.7431 34.9258 26.1873 34.9524 25.4562C34.9809 24.6869 34.384 24.0516 33.628 24.0464Z" fill="white"/>
</g>
<defs>
<clipPath id="clip0_1_21">
<rect width="45" height="45" fill="white"/>
</clipPath>
</defs>
</svg>
