<svg width="45" height="45" viewBox="0 0 45 45" fill="none" xmlns="http://www.w3.org/2000/svg">
<g clip-path="url(#clip0_1_34)">
<path d="M11.8426 39.1905L12.5774 39.5579C15.5736 41.3401 18.999 42.2716 22.4851 42.2522C33.2171 42.2278 42.0349 33.3892 42.0349 22.6572C42.0349 17.4707 39.9749 12.4898 36.3119 8.81819C32.6537 5.10861 27.6558 3.01807 22.4472 3.01807C11.7642 3.01807 2.97461 11.8089 2.97461 22.4907C2.97461 22.5752 2.97461 22.6584 2.97584 22.7429C3.00801 26.3747 4.02377 29.9298 5.91511 33.0303L6.40496 33.7651L4.44547 40.9908L11.8426 39.1905Z" fill="#26D366"/>
<path d="M38.492 6.61365C34.3219 2.35904 28.6014 -0.0278386 22.6445 0.000245047H22.6065C10.3389 0.000283413 0.243737 10.0954 0.243737 22.3631C0.243737 22.4207 0.244965 22.4771 0.244965 22.5346C0.291173 26.435 1.30088 30.2635 3.18424 33.6793L0 45.3139L11.8673 42.2521C15.1456 44.052 18.8313 44.9797 22.571 44.9465C34.8841 44.8791 44.978 34.7264 44.9706 22.4121C45 16.4957 42.667 10.8058 38.492 6.61365ZM22.6445 41.1499C19.3295 41.1672 16.0728 40.2778 13.2266 38.5781L12.4918 38.2106L5.42537 40.0477L7.2624 33.0669L6.77254 32.3321C4.95289 29.394 3.98885 26.0065 3.9888 22.5505C3.9888 12.3587 12.3755 3.97194 22.5674 3.97194C32.7592 3.97194 41.1459 12.3587 41.1459 22.5505C41.1459 28.9679 37.8209 34.9469 32.3686 38.3331C29.4849 40.1803 26.1303 41.1582 22.7058 41.1499M33.4708 27.5558L32.1236 26.9435C32.1236 26.9435 30.1641 26.0862 28.9394 25.4739C28.817 25.4739 28.6945 25.3514 28.572 25.3514C28.2701 25.3589 27.975 25.4432 27.7147 25.5963C27.4539 25.7494 27.5923 25.7188 25.8777 27.6783C25.7614 27.9073 25.5225 28.0506 25.2654 28.0457H25.1429C24.9588 28.0149 24.7881 27.9296 24.653 27.8008L24.0407 27.5558C22.7268 26.9996 21.5237 26.2114 20.489 25.229C20.2441 24.984 19.8767 24.739 19.6318 24.4941C18.7251 23.6256 17.9422 22.6366 17.3049 21.5549L17.1824 21.3099C17.076 21.1602 16.9934 20.995 16.9375 20.82C16.9054 20.6079 16.9488 20.3912 17.0599 20.2077C17.1714 20.024 17.5498 19.5953 17.9172 19.2279C18.2846 18.8605 18.2846 18.6156 18.5296 18.3707C18.6554 18.1958 18.7424 17.9961 18.7847 17.7848C18.8269 17.5736 18.8234 17.3557 18.7745 17.146C18.2037 15.5613 17.5497 14.0078 16.815 12.4922C16.6181 12.1859 16.3113 11.9668 15.9577 11.8798H14.6105C14.3656 11.8798 14.1207 12.0023 13.8757 12.0023L13.7533 12.1247C13.5083 12.2472 13.2634 12.4922 13.0184 12.6146C12.7735 12.7371 12.651 13.1045 12.4061 13.3494C11.55 14.4313 11.0762 15.7664 11.0589 17.146C11.0725 18.1164 11.2807 19.0743 11.6713 19.9628L11.7938 20.3302C12.8934 22.6813 14.4314 24.8011 16.3251 26.5761L16.815 27.066C17.1715 27.3612 17.4995 27.6892 17.7947 28.0457C20.3323 30.2538 23.3463 31.8459 26.6003 32.6996C26.9677 32.822 27.4576 32.822 27.8249 32.9445H29.0497C29.6897 32.9129 30.3159 32.7459 30.8867 32.4546C31.1867 32.3187 31.4733 32.1546 31.744 31.9647L31.9889 31.7198C32.2339 31.4748 32.4788 31.3524 32.7237 31.1075C32.9631 30.8942 33.1695 30.6465 33.3361 30.3726C33.5712 29.824 33.7365 29.2484 33.826 28.6581V27.8008C33.7159 27.7019 33.5921 27.6194 33.4585 27.5558" fill="white"/>
</g>
<defs>
<clipPath id="clip0_1_34">
<rect width="45" height="45" fill="white"/>
</clipPath>
</defs>
</svg>
