<svg width="46" height="32" viewBox="0 0 46 32" fill="none" xmlns="http://www.w3.org/2000/svg">
<g clip-path="url(#clip0_1_70)">
<path d="M30.4556 15.3075C26.341 13.1086 22.4012 11.0871 18.374 8.97656V21.6026C22.6118 19.2989 27.0786 17.1891 30.473 15.3075H30.4556Z" fill="white"/>
<path d="M30.4556 15.3075C26.341 13.1086 18.374 8.97656 18.374 8.97656L28.9961 16.1159C28.9961 16.1159 27.0611 17.1891 30.4556 15.3075Z" fill="#E8E0E0"/>
<path d="M19.148 31.4859C10.6016 31.3286 7.68261 31.187 5.88841 30.8173C4.67451 30.5717 3.61963 30.0264 2.84617 29.2355C2.24838 28.6368 1.77298 27.7235 1.40414 26.4563C1.08776 25.4006 0.964543 24.5222 0.788869 22.3767C0.519947 17.5344 0.455838 13.5755 0.788869 9.15201C1.06362 6.70923 1.19683 3.80936 3.02184 2.11756C3.88356 1.32578 4.88598 0.816246 6.01163 0.605604C7.77003 0.27174 15.2616 0.0078125 23.017 0.0078125C30.755 0.0078125 38.2632 0.27174 40.0232 0.605604C41.4295 0.869531 42.7483 1.66048 43.5226 2.68039C45.1877 5.29968 45.2169 8.55672 45.3859 11.1044C45.4558 12.3183 45.4558 19.2112 45.3859 20.4251C45.1228 24.4515 44.9113 25.876 44.3135 27.353C43.9439 28.2855 43.6283 28.7775 43.0821 29.3229C42.2255 30.1621 41.1335 30.7203 39.9516 30.9231C32.5559 31.4793 26.2757 31.6 19.148 31.4859ZM30.4736 15.3073C26.359 13.1084 22.4192 11.0694 18.3921 8.95885V21.5857C22.6299 19.282 27.0975 17.1714 30.4911 15.2898L30.4736 15.3073Z" fill="#CD201F"/>
</g>
<defs>
<clipPath id="clip0_1_70">
<rect width="45" height="31.608" fill="white" transform="translate(0.456055)"/>
</clipPath>
</defs>
</svg>
